<svg width="81" height="81" viewBox="0 0 81 81" fill="none" xmlns="http://www.w3.org/2000/svg">
<path fill-rule="evenodd" clip-rule="evenodd" d="M56.5386 6.74398L63.0476 2.0466L44.2441 0.172503L42.662 17.2123L49.4432 12.3095L65.8569 30.5335C68.6868 33.6647 71.9213 36.68 70.1948 41.95C68.2189 48.093 63.7357 49.4439 57.5754 48.8719C47.1503 47.904 40.1149 24.6599 23.279 23.0968C11.8504 22.0357 1.84344 29.5844 0.879099 39.9709C-0.0545754 50.027 9.35125 57.4319 17.4168 66.2489C19.3306 68.3475 22.4778 72.3026 24.5038 73.7969L17.978 78.9797L36.7558 80.8256L38.3379 63.7858L31.8267 68.5088L15.1429 50.4649C12.3131 47.3334 9.07863 44.3181 10.8051 39.0484C12.7812 32.9052 17.2642 31.5542 23.4246 32.1262C33.5987 33.0708 41.1914 56.3666 57.7209 57.9013C69.1496 58.9624 79.1565 51.4137 80.1208 41.0272C81.0545 30.9711 71.6486 23.5664 63.5831 14.7492C61.6462 12.5971 57.8297 8.88753 56.5386 6.74398Z" fill="#FCFCFC"/>
</svg>
