<svg xmlns="http://www.w3.org/2000/svg" version="1.1" xmlns:xlink="http://www.w3.org/1999/xlink" width="512" height="512" x="0" y="0" viewBox="0 0 520 520" style="enable-background:new 0 0 512 512" xml:space="preserve" class=""><g><g data-name="6-Check"><path fill="#009045" d="M239.847 459.259 32 234.427h100.774l79.56 91.531c.771-2.14 33.071-63.635 78.721-110.6C378.405 125.5 488 60.741 488 60.741c-.464.362-46.964 36.918-100.509 103.918C338.079 226.488 272.4 327.624 240.08 458.321z" opacity="1" data-original="#b0ef8f" class=""></path><path fill="#009045" d="M291.055 215.361c-45.65 46.962-77.95 108.457-78.721 110.6l27.513 133.3.233-.938c32.315-130.7 98-231.833 147.411-293.662C441.036 97.659 487.536 61.1 488 60.741c0 0-109.595 64.759-196.945 154.62z" opacity="1" data-original="#009045" class=""></path></g></g></svg>